Coordinates
version=1
nRows=24
nColumns=24
inDegrees=yes

Units are S.I. units (second, meters, Newtons, ...)
Angles are in degrees.

endheader
time	pelvis_tilt	pelvis_list	pelvis_rotation	pelvis_tx	pelvis_ty	pelvis_tz	hip_flexion_r	hip_adduction_r	hip_rotation_r	knee_angle_r	ankle_angle_r	subtalar_angle_r	mtp_angle_r	hip_flexion_l	hip_adduction_l	hip_rotation_l	knee_angle_l	ankle_angle_l	subtalar_angle_l	mtp_angle_l	lumbar_extension	lumbar_bending	lumbar_rotation
      3.57000000	     22.92146869	     -3.51950618	     -3.90580481	     -0.03397078	      0.97479951	     -0.01321451	     -2.81050912	     -0.69311740	    -14.66255671	    -21.88048946	      9.75379287	     -1.86356100	     37.18144861	    -36.61124124	      3.47845151	    -14.60379671	      4.22962075	     11.90818406	     14.86527333	     12.11551433	    -33.07114671	      0.53277585	      0.22446332
      3.57500000	     23.11136191	     -3.66314654	     -3.58142525	     -0.02765386	      0.97435834	     -0.01315144	     -3.22620570	     -0.33774330	    -15.43705766	    -19.57138685	      9.48220575	     -0.97815311	     37.39878309	    -37.30766807	      3.20391340	    -14.71895765	      4.36031856	     12.15530215	     15.34580203	     12.06041074	    -33.24462131	      0.81988495	      0.00710418
      3.58000000	     23.29409642	     -3.79018908	     -3.26826624	     -0.02131904	      0.97385730	     -0.01301723	     -3.63826075	      0.01936339	    -16.20340023	    -17.28111514	      9.17172709	     -0.00643061	     37.65803313	    -37.98568312	      2.94038459	    -14.83439649	      4.47029719	     12.40628380	     15.80829039	     11.98283378	    -33.40602302	      1.08076335	     -0.20590917
      3.58500000	     23.46130223	     -3.90104321	     -2.97582384	     -0.01496327	      0.97328708	     -0.01280695	     -4.03358602	      0.37674569	    -16.94987676	    -15.02495069	      8.81979349	      1.04294853	     37.94356415	    -38.63970966	      2.69415152	    -14.94818949	      4.56498707	     12.66183467	     16.23857539	     11.88787985	    -33.54498008	      1.31366254	     -0.41019715
      3.59000000	     23.60749374	     -3.98397765	     -2.70573442	     -0.00860941	      0.97264097	     -0.01251647	     -4.39588952	      0.71922688	    -17.66107961	    -12.83107104	      8.44256989	      2.17034430	     38.26481956	    -39.25644529	      2.47254012	    -15.04599782	      4.63283043	     12.92387482	     16.64860667	     11.77159100	    -33.65900246	      1.50520619	     -0.59618536
      3.59500000	     23.73111616	     -4.04968640	     -2.46625076	     -0.00226120	      0.97191967	     -0.01214008	     -4.71891069	      1.05542162	    -18.32267101	    -10.71766950	      8.02150043	      3.32020875	     38.56455409	    -39.83942951	      2.27632564	    -15.14324567	      4.68427636	     13.18171220	     16.97903234	     11.65392936	    -33.74913160	      1.66290825	     -0.77160245
      3.60000000	     23.82607182	     -4.05307939	     -2.26828992	      0.00402599	      0.97111338	     -0.01166082	     -4.96781973	      1.32204626	    -18.95023649	     -8.74783168	      7.60024217	      4.64818031	     39.00273762	    -40.36748019	      2.14149120	    -15.19305034	      4.69576420	     13.50377395	     17.37411311	     11.45435842	    -33.81207792	      1.73368228	     -0.93108068
      3.60500000	     23.90054628	     -4.06644163	     -2.08319638	      0.01034501	      0.97026762	     -0.01113687	     -5.19167584	      1.61095182	    -19.53640014	     -6.85832375	      7.15619585	      5.90625174	     39.39179314	    -40.85647505	      2.00271566	    -15.27698633	      4.66926250	     13.76679404	     17.61599501	     11.22673526	    -33.85093655	      1.80980106	     -1.08693302
      3.61000000	     23.97275823	     -4.08385484	     -1.92564447	      0.01661043	      0.96937963	     -0.01052543	     -5.40547879	      1.91528178	    -19.97808364	     -5.05260777	      6.70360811	      7.00759641	     39.57788015	    -41.36417817	      1.86888670	    -15.27570150	      4.69137472	     14.00791650	     17.76316624	     11.09960736	    -33.89324133	      1.87198427	     -1.19508999
      3.61500000	     24.00080255	     -4.05537221	     -1.80040412	      0.02287160	      0.96843718	     -0.00986547	     -5.52229091	      2.15141545	    -20.44223473	     -3.43788066	      6.27523684	      8.31132972	     39.77435425	    -41.77353865	      1.78364356	    -15.31810366	      4.61269624	     14.26617773	     17.90879530	     10.92643328	    -33.88989133	      1.87579183	     -1.32243046
      3.62000000	     24.04563275	     -4.06051744	     -1.68184056	      0.02910706	      0.96750149	     -0.00915784	     -5.67124277	      2.43446695	    -20.75172598	     -1.88221818	      5.82107107	      9.32481054	     39.81198355	    -42.22248088	      1.67115188	    -15.31133355	      4.58189959	     14.46359243	     17.94387783	     10.84220661	    -33.90968182	      1.90618283	     -1.40366435
      3.62500000	     24.07113417	     -4.03465107	     -1.58932062	      0.03533967	      0.96653346	     -0.00841117	     -5.75942291	      2.66300268	    -21.06234777	     -0.50941627	      5.39707980	     10.48446681	     39.81764325	    -42.62630854	      1.59266392	    -15.30365192	      4.50067654	     14.70057609	     17.99574812	     10.76122614	    -33.90923777	      1.89406479	     -1.49168521
      3.63000000	     24.07820764	     -3.99970850	     -1.51081304	      0.04154260	      0.96556228	     -0.00764952	     -5.80833415	      2.86965293	    -21.30001217	      0.72112524	      4.98713626	     11.54973527	     39.76003812	    -42.98951882	      1.52245047	    -15.26920081	      4.38134234	     14.91846883	     17.99087962	     10.68619507	    -33.89438467	      1.86974441	     -1.55470196
      3.63500000	     24.08996013	     -3.96434218	     -1.43050430	      0.04775748	      0.96461122	     -0.00689746	     -5.84620322	      3.06003814	    -21.51733924	      1.80153265	      4.63032657	     12.60942268	     39.64695794	    -43.34865378	      1.44672580	    -15.20992344	      4.24456196	     15.13495705	     17.97483900	     10.60993739	    -33.88311913	      1.84809060	     -1.61355698
      3.64000000	     24.10839677	     -3.91187554	     -1.35998074	      0.05391505	      0.96367888	     -0.00615700	     -5.86081665	      3.20957743	    -21.69621805	      2.70812003	      4.33543668	     13.63350682	     39.43885847	    -43.68960835	      1.38589326	    -15.11920878	      4.06370747	     15.38208596	     17.93754734	     10.52708778	    -33.88845386	      1.80861468	     -1.66308533
      3.64500000	     24.12453391	     -3.87995697	     -1.28428859	      0.06014863	      0.96277822	     -0.00541904	     -5.87445576	      3.36924177	    -21.83413337	      3.48495891	      4.05288339	     14.53232262	     39.16211058	    -44.02440272	      1.30043693	    -15.03971977	      3.86659299	     15.58809845	     17.86976485	     10.45391812	    -33.88324589	      1.79336402	     -1.70442303
      3.65000000	     24.13539313	     -3.84135789	     -1.20791002	      0.06638761	      0.96191143	     -0.00471429	     -5.85872569	      3.49900672	    -21.96563604	      4.08731662	      3.84062883	     15.40757001	     38.76241684	    -44.32116025	      1.21590294	    -14.97064132	      3.60580963	     15.78804811	     17.78579017	     10.38122328	    -33.87256658	      1.77890327	     -1.75495633
      3.65500000	     24.16342653	     -3.84023512	     -1.12015787	      0.07268283	      0.96107603	     -0.00404782	     -5.88214907	      3.65949787	    -22.00491872	      4.60738028	      3.56907779	     15.99409764	     38.52380631	    -44.66152185	      1.09392036	    -14.87791485	      3.39353482	     15.93115739	     17.70646909	     10.36199508	    -33.87812663	      1.81113858	     -1.77865403
      3.66000000	     24.20609638	     -3.82635735	     -1.01410314	      0.07898515	      0.96030640	     -0.00344670	     -5.88431842	      3.77713414	    -22.11438876	      4.91610436	      3.39460255	     16.70940334	     38.23091848	    -44.97762532	      0.96408940	    -14.76696050	      3.10068012	     16.11347216	     17.63032324	     10.35335787	    -33.89918880	      1.84647721	     -1.81942672
      3.66500000	     24.26589091	     -3.80426572	     -0.90637482	      0.08530299	      0.95960004	     -0.00290470	     -5.87919383	      3.85959863	    -22.24590332	      5.04129835	      3.33666320	     17.36653689	     37.78621555	    -45.28791896	      0.83976382	    -14.65487605	      2.75874530	     16.30053743	     17.52656882	     10.34783289	    -33.93803781	      1.88128054	     -1.84688330
      3.67000000	     24.28047360	     -3.78814743	     -0.82740357	      0.09165606	      0.95886092	     -0.00231028	     -5.86026355	      3.93968624	    -22.12056469	      5.12749441	      3.19651497	     17.51472681	     37.72546949	    -45.53574411	      0.71944934	    -14.55267694	      2.38392532	     16.47982827	     17.42573458	     10.37412727	    -33.92685308	      1.91028037	     -1.84009207
      3.67500000	     24.38595270	     -3.81132136	     -0.63852962	      0.09814123	      0.95829297	     -0.00192829	     -5.92709888	      4.05071202	    -22.30730598	      5.04881441	      2.99106309	     18.01047750	     37.45880057	    -45.89227413	      0.49964723	    -14.39949939	      2.03189540	     16.58118658	     17.37192627	     10.39666092	    -33.99819668	      2.04251114	     -1.91224890
      3.68000000	     24.43415035	     -3.80145342	     -0.53944479	      0.10457502	      0.95767358	     -0.00146137	     -5.91036831	      4.08947245	    -22.20509524	      4.82092506	      2.88829193	     18.09236395	     37.39910855	    -46.14411459	      0.36226201	    -14.30910686	      1.59238486	     16.73322614	     17.26607114	     10.42543708	    -34.01712434	      2.10239682	     -1.91604332
      3.68500000	     24.50613447	     -3.80322423	     -0.41085055	      0.11105840	      0.95712380	     -0.00103429	     -5.92319056	      4.13438491	    -22.14741013	      4.49780266	      2.72090447	     18.13617393	     37.33674610	    -46.40865875	      0.18858562	    -14.18200634	      1.12637723	     16.85703686	     17.17331775	     10.45396551	    -34.05842154	      2.19011629	     -1.92097816
